<svg width="27" height="23" viewBox="0 0 27 23" fill="none" xmlns="http://www.w3.org/2000/svg">
<path d="M3.03933 3.26544C2.87167 2.96432 2.7123 2.67777 2.56234 2.4079C3.38721 3.12465 4.38511 3.96638 5.45442 4.81336C6.85281 5.92098 8.38233 7.04474 9.8119 7.90998C11.2186 8.76136 12.6074 9.41258 13.7024 9.48443C14.2816 9.52243 14.9211 9.3825 15.5736 9.14346C16.2312 8.90253 16.9345 8.54868 17.652 8.12633C19.0867 7.28174 20.6191 6.13869 22.0177 4.99841C23.0413 4.16379 23.9993 3.32563 24.8027 2.59823C24.682 2.81649 24.5556 3.04476 24.4242 3.28202C23.2686 5.36742 21.7192 8.14688 20.1433 10.9242C18.5669 13.7025 16.9661 16.4748 15.7071 18.5474C15.0768 19.5849 14.5364 20.4402 14.1295 21.0315C13.9779 21.2519 13.8489 21.4294 13.7437 21.5637C13.6348 21.4224 13.5004 21.2346 13.342 21.0016C12.9341 20.4016 12.3929 19.5406 11.7622 18.5004C10.5022 16.422 8.90026 13.6528 7.32287 10.8815C5.74598 8.11112 4.19561 5.3421 3.03933 3.26544Z" fill="black" stroke="black"/>
</svg>
