<svg width="29" height="54" viewBox="0 0 29 54" fill="none" xmlns="http://www.w3.org/2000/svg">
<path d="M1.05789 13.3098L1.38564 12.9327L0.696314 13.6553L1.05789 13.3098ZM1.05789 13.3098L1.38566 12.9327L1.3859 12.9329L1.387 12.9338L1.3917 12.9378L1.41098 12.9542L1.48788 13.0191C1.55575 13.0761 1.65623 13.1601 1.78582 13.2672C2.04503 13.4815 2.42055 13.788 2.88439 14.1562C3.81256 14.8928 5.09201 15.8738 6.4993 16.8539C7.90843 17.8353 9.43601 18.8088 10.8617 19.535C12.3067 20.2709 13.5754 20.7147 14.4893 20.7147C15.4032 20.7147 16.6719 20.2709 18.1168 19.5349C19.5426 18.8088 21.0701 17.8353 22.4793 16.8539C23.8866 15.8738 25.166 14.8928 26.0942 14.1561C26.558 13.788 26.9335 13.4815 27.1927 13.2672C27.3223 13.1601 27.4228 13.0761 27.4907 13.019L27.5676 12.9542L27.5869 12.9378L27.5916 12.9338L27.5927 12.9329L27.5929 12.9327L27.9207 13.3098M1.05789 13.3098C0.696314 13.6553 0.696368 13.6553 0.69647 13.6554L0.69691 13.6559L0.698643 13.6577L0.705484 13.6647L0.732423 13.6924L0.837408 13.8C0.929376 13.8943 1.06432 14.0325 1.23637 14.2083C1.58046 14.56 2.07297 15.0624 2.66685 15.6651C3.85448 16.8706 5.44808 18.4782 7.07103 20.0863C8.69314 21.6935 10.348 23.3045 11.6571 24.515C12.3107 25.1195 12.8842 25.6297 13.3269 25.9909C13.5472 26.1707 13.744 26.3209 13.9072 26.4287C13.9882 26.4822 14.071 26.532 14.1509 26.5702C14.2144 26.6006 14.3409 26.6566 14.4893 26.6566C14.6377 26.6566 14.7641 26.6006 14.8277 26.5702C14.9076 26.532 14.9904 26.4822 15.0714 26.4287C15.2346 26.3209 15.4314 26.1707 15.6517 25.991C16.0944 25.6297 16.6678 25.1195 17.3215 24.5151C18.6306 23.3045 20.2854 21.6935 21.9075 20.0863C23.5305 18.4782 25.1241 16.8706 26.3117 15.6651C26.9056 15.0624 27.3981 14.56 27.7422 14.2083C27.9142 14.0325 28.0492 13.8943 28.1412 13.8L28.2461 13.6924L28.2731 13.6647L28.2799 13.6577L28.2817 13.6559L28.2821 13.6554C28.2822 13.6553 28.2823 13.6553 27.9207 13.3098M27.9207 13.3098L27.5929 12.9327L28.2823 13.6553L27.9207 13.3098Z" fill="white" stroke="black"/>
<path d="M27.9206 40.4167L27.5929 40.7939L28.2822 40.0713L27.9206 40.4167ZM27.9206 40.4167L27.5928 40.7938L27.5926 40.7936L27.5915 40.7927L27.5868 40.7887L27.5675 40.7724L27.4906 40.7075C27.4228 40.6504 27.3223 40.5664 27.1927 40.4593C26.9335 40.245 26.558 39.9385 26.0942 39.5703C25.166 38.8337 23.8866 37.8525 22.4794 36.8724C21.0703 35.891 19.5427 34.9174 18.117 34.1912C16.6721 33.4552 15.4034 33.0114 14.4896 33.0113C13.5757 33.0113 12.307 33.455 10.862 34.1909C9.4362 34.917 7.90858 35.8904 6.4994 36.8717C5.09206 37.8518 3.81258 38.8328 2.88437 39.5694C2.42051 39.9374 2.04498 40.244 1.78576 40.4582C1.65617 40.5654 1.55568 40.6494 1.48781 40.7064L1.4109 40.7713L1.39162 40.7876L1.38692 40.7916L1.38582 40.7925L1.38559 40.7927L1.05783 40.4156M27.9206 40.4167C28.2822 40.0713 28.2822 40.0712 28.2821 40.0711L28.2816 40.0707L28.2799 40.0689L28.273 40.0619L28.2461 40.0342L28.1411 39.9265C28.0492 39.8323 27.9142 39.6941 27.7422 39.5182C27.3981 39.1665 26.9056 38.6642 26.3118 38.0614C25.1242 36.8559 23.5307 35.2482 21.9078 33.64C20.2858 32.0328 18.6309 30.4217 17.3219 29.2111C16.6683 28.6066 16.0949 28.0963 15.6522 27.7351C15.4319 27.5553 15.2351 27.4051 15.0719 27.2973C14.9909 27.2438 14.9081 27.194 14.8282 27.1558C14.7647 27.1254 14.6382 27.0694 14.4898 27.0694C14.3414 27.0694 14.215 27.1254 14.1514 27.1558C14.0715 27.194 13.9887 27.2438 13.9077 27.2973C13.7445 27.405 13.5477 27.5552 13.3274 27.735C12.8847 28.0962 12.3112 28.6064 11.6576 29.2108C10.3484 30.4213 8.69346 32.0323 7.07128 33.6394C5.44825 35.2474 3.85458 36.855 2.66689 38.0604C2.07299 38.6631 1.58045 39.1654 1.23635 39.5171C1.0643 39.6929 0.92934 39.8311 0.837368 39.9254L0.732379 40.0331L0.705438 40.0607L0.698598 40.0677L0.696864 40.0695L0.696424 40.07C0.696323 40.0701 0.696268 40.0701 1.05783 40.4156M1.05783 40.4156L1.38556 40.7928L0.696268 40.0701L1.05783 40.4156Z" fill="white" stroke="black"/>
</svg>
