<svg width="17" height="14" viewBox="0 0 17 14" fill="none" xmlns="http://www.w3.org/2000/svg">
<path d="M14.1507 3.28798C13.5212 4.42078 12.7539 5.79326 11.9757 7.16473C11.0451 8.80495 10.101 10.4399 9.35909 11.6612C8.98744 12.273 8.67073 12.7741 8.4338 13.1184C8.41365 13.1477 8.39428 13.1755 8.37571 13.2019C8.35382 13.1705 8.33083 13.1371 8.30677 13.1017C8.06894 12.7518 7.75154 12.2471 7.37961 11.6336C6.63703 10.4087 5.69216 8.77542 4.76089 7.1393C3.9475 5.71028 3.146 4.28176 2.50121 3.12598C2.77171 3.35105 3.05747 3.58398 3.35247 3.81764C4.1814 4.47421 5.09218 5.1437 5.9468 5.66094C6.77853 6.16434 7.63614 6.57387 8.33686 6.61985C8.71886 6.64491 9.12708 6.55247 9.52567 6.40644C9.92945 6.25851 10.3563 6.04319 10.7865 5.78999C11.6465 5.28369 12.5606 4.6014 13.39 3.9251C13.6523 3.71125 13.9073 3.49706 14.1507 3.28798Z" fill="black" stroke="black"/>
</svg>
